<svg width="267" height="197" viewBox="0 0 267 197" fill="none" xmlns="http://www.w3.org/2000/svg">
<rect x="2.5" y="0.5" width="262" height="195" fill="#D9D9D9" stroke="white"/>
<path d="M103.291 100.45L103.109 100.229L103.079 100.075L102.837 99.9834L102.668 100.155L102.349 100.164L102.138 99.9595C102.094 99.7688 102.109 99.5702 102.182 99.3636L102.114 99.3448C102.012 99.3648 101.902 99.3506 101.786 99.3021L101.636 99.1389C101.611 98.9374 101.626 98.7387 101.68 98.543C101.739 98.3323 101.798 98.1215 101.856 97.9107L101.811 97.8982C100.761 98.174 99.7075 98.319 98.6494 98.3331C97.5914 98.3471 96.5485 98.2194 95.5206 97.95C95.1526 97.8153 94.8218 97.6341 94.5283 97.4066C94.2389 97.164 93.9943 96.8771 93.7945 96.5458C93.5746 96.1117 93.463 95.6672 93.4597 95.2122C93.4564 94.7572 93.5368 94.293 93.7008 93.8196C94.3651 92.1879 95.0532 91.025 95.7651 90.3309C96.492 89.641 97.3343 89.0318 98.2921 88.5034C99.111 88.0661 99.9771 87.7797 100.89 87.6444C101.823 87.4981 102.74 87.5259 103.64 87.7276C103.978 87.8539 104.271 88.0246 104.52 88.2396C104.783 88.4587 105.012 88.7168 105.205 89.0137C105.74 87.9625 106.313 86.9217 106.924 85.8913C107.554 84.8501 108.275 83.8909 109.086 83.0136C109.197 82.9635 109.319 82.9647 109.45 83.0175L109.622 83.1869L109.735 83.6561L109.78 83.6686L110.055 83.3801C110.166 83.33 110.287 83.3312 110.418 83.3839L110.59 83.5533C110.64 83.6646 110.647 83.7879 110.609 83.9234L110.456 84.1241L110.501 84.1367L110.726 84.0288L110.958 84.069L111.13 84.2384C111.18 84.3497 111.186 84.473 111.148 84.6085L111.047 84.7992C111.086 84.8912 111.089 84.9974 111.055 85.1179C109.744 87.4453 108.591 89.9874 107.598 92.744C106.609 95.4855 105.708 98.1137 104.896 100.629C104.784 100.679 104.663 100.677 104.532 100.625L104.344 100.427L104.34 100.353L104.272 100.334L104.13 100.319L103.897 100.108C103.885 100.267 103.812 100.384 103.678 100.46C103.551 100.506 103.422 100.503 103.291 100.45ZM99.1353 96.0598C99.4548 96.0189 99.7655 95.9512 100.067 95.8567C100.389 95.7514 100.714 95.6879 101.045 95.6662L101.281 95.7804L101.451 95.7791L101.685 95.99L101.721 96.1217L101.766 96.1342L102.495 95.8746C102.747 95.0851 103.053 94.189 103.413 93.1862C103.792 92.1726 104.145 91.2814 104.472 90.5129L104.41 90.4714L104.407 90.3974C104.252 90.3706 104.134 90.2974 104.054 90.1778C104.004 90.0666 103.988 89.9486 104.006 89.824L103.709 89.6684C103.131 89.5889 102.555 89.6478 101.982 89.8451C101.423 90.0465 100.882 90.3016 100.358 90.6101C99.5969 91.0148 98.9787 91.4593 98.5036 91.9435C98.0285 92.4277 97.5089 93.305 96.945 94.5754C96.8889 94.8355 96.8672 95.0889 96.8797 95.3356C96.9114 95.5715 97 95.8069 97.1455 96.042C97.23 96.1465 97.3442 96.2026 97.488 96.2101C97.7757 96.2252 98.0526 96.2211 98.3185 96.1977C98.5887 96.1593 98.861 96.1133 99.1353 96.0598ZM117.123 104.684C116.972 104.528 116.788 104.404 116.57 104.311C116.463 104.346 116.352 104.34 116.235 104.291L116.031 104.064C115.996 103.957 116.005 103.838 116.057 103.706L115.883 103.634C115.867 103.808 115.792 103.933 115.657 104.009C115.526 104.07 115.39 104.064 115.248 103.992L115.099 103.829C115.064 103.722 115.053 103.614 115.067 103.504L115.457 102.104L115.548 101.862L115.503 101.85C114.642 102.146 113.757 102.386 112.846 102.571C111.935 102.755 111.026 102.73 110.118 102.494C109.765 102.363 109.45 102.186 109.171 101.963C108.912 101.729 108.694 101.433 108.518 101.076C108.332 100.635 108.228 100.192 108.205 99.7484C108.187 99.2892 108.226 98.8296 108.321 98.3696L108.672 97.105C109.06 96.0613 109.615 94.9101 110.338 93.6514C111.076 92.3969 111.847 91.3708 112.653 90.573C112.764 90.5228 112.885 90.5241 113.017 90.5768L113.189 90.7462L113.199 90.7977L113.244 90.8102C113.331 90.6722 113.45 90.5919 113.603 90.5694L113.835 90.6096L114.007 90.779L114.04 91.0073C114.18 91.0299 114.29 91.101 114.37 91.2206C114.421 91.3319 114.427 91.4552 114.389 91.5907L114.457 91.6096L114.718 91.6334L114.89 91.8028C114.94 91.9141 114.946 92.0374 114.908 92.1729L114.854 92.2796L115.01 92.4201C115.06 92.5313 115.066 92.6547 115.029 92.7902C114.162 93.4575 113.353 94.3841 112.602 95.57C111.866 96.7601 111.338 97.8703 111.02 98.9007C110.968 99.1457 110.94 99.3895 110.938 99.6321C110.94 99.8596 111.008 100.081 111.142 100.297L111.271 100.357C112.233 100.398 113.162 100.266 114.057 99.9637C114.971 99.6502 115.867 99.3154 116.744 98.9592C117.148 98.1471 117.708 97.0946 118.425 95.8017C119.156 94.5129 119.794 93.4985 120.341 92.7583C120.452 92.7082 120.573 92.7095 120.705 92.7622L120.967 92.9567C121.074 92.9215 121.178 92.9262 121.279 92.9705L121.451 93.1399L121.521 93.5L121.611 93.5251L121.798 93.5527L122.003 93.7798L122.007 93.8538L122.074 93.8727L122.335 93.8965L122.507 94.0659C122.557 94.1772 122.564 94.3006 122.526 94.436C122.413 94.5506 122.324 94.6961 122.259 94.8726L122.241 95.111C121.107 97.3256 120.299 99.0634 119.819 100.325C119.339 101.586 118.896 102.858 118.491 104.14L118.457 104.349L118.259 104.537C118.133 104.583 118.004 104.58 117.872 104.527L117.788 104.48L117.504 104.717C117.381 104.748 117.255 104.737 117.123 104.684ZM134.644 109.213L134.456 109.015C134.406 108.903 134.407 108.782 134.46 108.651L134.52 108.522C134.427 108.447 134.373 108.351 134.357 108.233L134.391 108.024C134.797 107.147 135.201 106.278 135.602 105.417C136.008 104.54 136.393 103.65 136.758 102.746C136.816 102.421 136.873 102.097 136.931 101.772C137.004 101.452 137.035 101.136 137.024 100.825C136.859 100.601 136.667 100.418 136.447 100.276C136.246 100.123 136.011 100.008 135.74 99.933C135.435 99.9781 135.127 100.038 134.814 100.114C134.52 100.178 134.22 100.265 133.914 100.374L133.575 100.718L133.167 102.186C132.801 103.154 132.442 104.125 132.091 105.098C131.739 106.07 131.272 106.962 130.69 107.773C130.583 107.809 130.464 107.8 130.333 107.747C130.21 107.664 130.137 107.547 130.114 107.394L130.142 107.208C129.987 107.181 129.858 107.12 129.754 107.027C129.737 107.265 129.634 107.431 129.446 107.525C129.323 107.556 129.197 107.545 129.065 107.492L128.88 107.197L128.889 107.078L128.843 107.066L128.67 107.163L128.516 107.193L128.291 107.301L128.059 107.261L127.836 107.102L127.546 107.094L127.342 106.867L127.333 106.548C127.85 105.33 128.373 104.121 128.9 102.922C129.448 101.712 129.922 100.473 130.322 99.2058C130.327 98.8989 130.282 98.5944 130.187 98.2925C130.027 98.167 129.846 98.0599 129.644 97.9712C129.457 97.8867 129.255 97.8227 129.04 97.7792C128.69 97.698 128.363 97.7937 128.061 98.0663C127.128 98.7964 126.483 99.7443 126.127 100.91C125.79 102.065 125.419 103.195 125.015 104.299L124.657 105.586L124.453 105.797C124.341 105.847 124.22 105.845 124.089 105.793L123.901 105.594L123.873 105.344L123.828 105.331C123.693 105.407 123.547 105.407 123.39 105.331C123.282 105.252 123.222 105.146 123.211 105.014L123.238 104.827L123.193 104.814L122.946 104.916C122.912 105.214 122.792 105.44 122.587 105.594C122.465 105.625 122.338 105.614 122.207 105.562L122.021 105.267L122.149 104.719L122.104 104.706C121.993 104.756 121.872 104.755 121.74 104.702L121.458 104.405C121.42 104.248 121.427 104.08 121.477 103.899C121.376 103.855 121.3 103.777 121.25 103.666C121.119 103.321 121.113 102.963 121.233 102.591C121.737 101.125 122.347 99.6894 123.062 98.2827C123.778 96.876 124.642 95.5755 125.655 94.3813C125.826 94.3479 125.997 94.3466 126.167 94.3776L126.553 93.9498C126.664 93.8997 126.786 93.901 126.917 93.9537L127.089 94.1231C127.139 94.2343 127.145 94.3577 127.108 94.4932L127.054 94.5998L127.076 94.6061C127.207 94.545 127.338 94.5409 127.469 94.5936L127.643 94.6664L127.83 94.694L128.031 94.8471L128.256 94.7392L128.488 94.7794L128.66 94.9488C128.71 95.06 128.716 95.1834 128.678 95.3189L128.637 95.3804C128.687 95.4916 128.693 95.615 128.656 95.7505L128.477 96.0415L128.523 96.0541C128.99 96.0056 129.46 96.0065 129.933 96.0568C130.409 96.092 130.892 96.1937 131.38 96.3619C131.744 96.5116 132.073 96.7003 132.367 96.9278C132.664 97.1403 132.928 97.4163 133.158 97.7559L133.498 98.4586C134.283 98.1417 135.083 97.9503 135.896 97.8843C136.713 97.8033 137.528 97.8758 138.341 98.1017C138.728 98.2256 139.068 98.4012 139.362 98.6288C139.67 98.8605 139.928 99.1591 140.134 99.5247L140.138 99.5987L140.183 99.6112C140.508 100.253 140.646 100.924 140.597 101.624C140.564 102.328 140.477 103.017 140.338 103.692L139.949 105.092C139.678 105.893 139.364 106.673 139.007 107.433C138.654 108.179 138.308 108.926 137.97 109.675C137.784 109.704 137.597 109.677 137.409 109.592L137.325 109.545L137.029 109.56L136.802 109.326L136.792 109.275L136.747 109.262L136.594 109.463C136.444 109.535 136.291 109.533 136.133 109.457C136.026 109.378 135.966 109.272 135.954 109.139L135.982 108.952L136.023 108.891L135.955 108.872L135.814 108.857L135.548 108.588C135.401 108.823 135.221 109.033 135.008 109.217C134.897 109.267 134.776 109.266 134.644 109.213ZM154.313 114.68L154.125 114.481C154.074 114.37 154.076 114.249 154.128 114.117L154.189 113.988C154.096 113.914 154.042 113.818 154.026 113.7L154.06 113.49C154.465 112.614 154.869 111.745 155.271 110.883C155.676 110.007 156.062 109.117 156.426 108.212C156.484 107.888 156.542 107.563 156.6 107.239C156.673 106.919 156.704 106.603 156.693 106.292C156.528 106.068 156.336 105.884 156.116 105.742C155.915 105.589 155.679 105.475 155.408 105.4C155.104 105.445 154.795 105.505 154.482 105.58C154.189 105.644 153.889 105.731 153.583 105.841L153.244 106.185L152.836 107.652C152.469 108.621 152.111 109.591 151.759 110.564C151.408 111.537 150.941 112.429 150.359 113.24C150.252 113.275 150.132 113.266 150.001 113.214C149.878 113.131 149.805 113.013 149.783 112.861L149.81 112.674C149.656 112.647 149.526 112.587 149.423 112.493C149.405 112.732 149.302 112.898 149.114 112.991C148.992 113.022 148.865 113.011 148.734 112.959L148.548 112.664L148.557 112.545L148.512 112.532L148.339 112.63L148.184 112.66L147.96 112.768L147.728 112.728L147.505 112.568L147.215 112.561L147.01 112.334L147.002 112.015C147.519 110.796 148.041 109.588 148.569 108.388C149.116 107.178 149.59 105.939 149.991 104.672C149.995 104.365 149.95 104.061 149.856 103.759C149.696 103.634 149.515 103.526 149.312 103.438C149.125 103.353 148.924 103.289 148.709 103.246C148.359 103.165 148.032 103.26 147.729 103.533C146.796 104.263 146.152 105.211 145.795 106.377C145.458 107.532 145.088 108.661 144.683 109.765L144.326 111.052L144.121 111.263C144.01 111.313 143.889 111.312 143.757 111.259L143.569 111.061L143.542 110.81L143.496 110.798C143.362 110.874 143.216 110.874 143.059 110.797C142.951 110.719 142.891 110.613 142.879 110.48L142.907 110.293L142.862 110.281L142.614 110.382C142.58 110.681 142.461 110.907 142.256 111.061C142.133 111.092 142.007 111.081 141.875 111.028L141.69 110.733L141.818 110.185L141.773 110.173C141.661 110.223 141.54 110.221 141.409 110.169L141.127 109.871C141.089 109.715 141.095 109.546 141.146 109.366C141.044 109.321 140.969 109.244 140.918 109.132C140.787 108.788 140.781 108.429 140.901 108.057C141.406 106.592 142.016 105.156 142.731 103.749C143.446 102.343 144.31 101.042 145.323 99.8478C145.495 99.8144 145.665 99.8132 145.835 99.8442L146.222 99.4164C146.333 99.3662 146.454 99.3675 146.586 99.4202L146.757 99.5896C146.808 99.7009 146.814 99.8242 146.776 99.9597L146.722 100.066L146.745 100.073C146.875 100.012 147.006 100.007 147.137 100.06L147.312 100.133L147.499 100.161L147.7 100.314L147.924 100.206L148.156 100.246L148.328 100.415C148.378 100.527 148.384 100.65 148.347 100.785L148.305 100.847C148.356 100.958 148.362 101.082 148.324 101.217L148.146 101.508L148.191 101.521C148.659 101.472 149.129 101.473 149.601 101.523C150.078 101.559 150.561 101.66 151.049 101.828C151.413 101.978 151.741 102.167 152.035 102.394C152.333 102.607 152.597 102.883 152.827 103.222L153.166 103.925C153.952 103.608 154.751 103.417 155.564 103.351C156.381 103.27 157.196 103.342 158.009 103.568C158.396 103.692 158.737 103.868 159.03 104.095C159.339 104.327 159.596 104.626 159.803 104.991L159.807 105.065L159.852 105.078C160.176 105.719 160.314 106.39 160.266 107.09C160.232 107.794 160.146 108.484 160.007 109.159L159.618 110.559C159.347 111.359 159.033 112.14 158.675 112.9C158.322 113.645 157.977 114.392 157.639 115.142C157.452 115.171 157.265 115.143 157.078 115.059L156.994 115.011L156.698 115.026L156.471 114.793L156.461 114.741L156.415 114.729L156.262 114.929C156.113 115.001 155.959 114.999 155.802 114.923C155.694 114.845 155.634 114.739 155.623 114.606L155.65 114.419L155.692 114.357L155.624 114.338L155.482 114.323L155.216 114.055C155.07 114.29 154.89 114.499 154.677 114.683C154.565 114.734 154.444 114.732 154.313 114.68ZM164.128 120.764L163.94 120.566L163.918 120.293C163.764 120.266 163.636 120.198 163.537 120.089C163.406 120.15 163.276 120.155 163.144 120.102L162.972 119.932L162.947 119.585L163.178 119.017L163.094 118.969L162.811 118.939L162.645 118.747C162.605 118.541 162.631 118.329 162.724 118.112C162.887 117.703 163.06 117.313 163.244 116.943C163.432 116.557 163.628 116.174 163.831 115.792L163.786 115.78C163.671 115.845 163.547 115.851 163.416 115.799L163.254 115.681L163.184 115.759C163.073 115.809 162.949 115.815 162.814 115.777L162.73 115.73C162.703 115.884 162.63 116.002 162.51 116.082C162.384 116.128 162.247 116.123 162.101 116.066L161.952 115.903C161.661 114.557 161.573 113.211 161.688 111.864C161.817 110.522 162.051 109.184 162.39 107.851L162.766 106.496C162.911 106.033 163.063 105.573 163.223 105.115C163.383 104.656 163.599 104.23 163.871 103.835C163.982 103.785 164.103 103.786 164.234 103.839L164.341 103.893L164.546 103.682C164.657 103.632 164.778 103.633 164.909 103.686L165.081 103.855C165.131 103.967 165.138 104.09 165.1 104.225L165.04 104.355L165.298 104.475C165.329 104.305 165.412 104.182 165.547 104.106C165.658 104.056 165.779 104.057 165.91 104.11L166.082 104.28C166.143 104.41 166.143 104.556 166.082 104.717L166.016 104.869L166.132 104.975L166.183 105.232L165.894 106.271C165.661 107.341 165.531 108.424 165.502 109.519C165.473 110.613 165.534 111.709 165.683 112.804L165.751 112.823C166.491 111.796 167.256 110.793 168.047 109.813C168.854 108.837 169.697 107.903 170.577 107.013L170.857 106.969C171.021 106.787 171.177 106.604 171.326 106.418C171.49 106.237 171.667 106.067 171.857 105.909C171.998 105.867 172.15 105.877 172.311 105.938L172.44 105.998L172.627 106.026L172.799 106.195C172.86 106.325 172.862 106.464 172.805 106.61L172.867 106.652C172.865 106.716 172.911 106.753 173.006 106.763L173.267 106.787L173.439 106.957C173.489 107.068 173.495 107.191 173.458 107.327C171.968 109.183 170.636 111.148 169.46 113.221C168.298 115.299 167.286 117.426 166.421 119.602L166.148 119.623C166.024 120.01 165.833 120.346 165.576 120.632C165.469 120.667 165.357 120.66 165.241 120.612L165.069 120.442L165.025 120.162L164.84 120.038C164.806 120.337 164.69 120.58 164.492 120.768C164.38 120.818 164.259 120.817 164.128 120.764Z" fill="#656565"/>
<path d="M2 1H264.5L133.25 98.5L264.5 196H2L133.25 98.5L2 1Z" fill="#ACA5A5" fill-opacity="0.2"/>
<path d="M2 1H264.5L133.25 98.5L2 196H264.5L2 1Z" stroke="white"/>
<rect x="126.5" y="93.5" width="14" height="10" stroke="white"/>
<path d="M6 44V4H46" stroke="white" stroke-linecap="round"/>
<path d="M46.5 192.5H6.5L6.5 152.5" stroke="white" stroke-linecap="round"/>
<path d="M222 3L262 3V43" stroke="white" stroke-linecap="round"/>
<path d="M261 153V193H221" stroke="white" stroke-linecap="round"/>
</svg>
